<mxfile host="app.diagrams.net" modified="2020-10-19T14:38:08.204Z" agent="5.0 (Windows NT 10.0; Win64; x64) AppleWebKit/537.36 (KHTML, like Gecko) Chrome/86.0.4240.75 Safari/537.36" etag="zNATgJH9UX5YDIiEk0WJ" version="13.8.0" type="github">
  <diagram id="C5RBs43oDa-KdzZeNtuy" name="Page-1">
    <mxGraphModel dx="587" dy="604" grid="1" gridSize="10" guides="1" tooltips="1" connect="1" arrows="1" fold="1" page="1" pageScale="1" pageWidth="827" pageHeight="1169" math="0" shadow="0">
      <root>
        <mxCell id="WIyWlLk6GJQsqaUBKTNV-0" />
        <mxCell id="WIyWlLk6GJQsqaUBKTNV-1" parent="WIyWlLk6GJQsqaUBKTNV-0" />
        <mxCell id="jOmqPRC1gDmP6d5kV9vs-20" value="" style="endArrow=diamondThin;endFill=0;endSize=24;html=1;exitX=0.5;exitY=0;exitDx=0;exitDy=0;" edge="1" parent="WIyWlLk6GJQsqaUBKTNV-1" source="jOmqPRC1gDmP6d5kV9vs-16" target="jOmqPRC1gDmP6d5kV9vs-4">
          <mxGeometry width="160" relative="1" as="geometry">
            <mxPoint x="210" y="280" as="sourcePoint" />
            <mxPoint x="370" y="280" as="targetPoint" />
          </mxGeometry>
        </mxCell>
        <mxCell id="jOmqPRC1gDmP6d5kV9vs-22" value="have" style="edgeLabel;html=1;align=center;verticalAlign=middle;resizable=0;points=[];" vertex="1" connectable="0" parent="jOmqPRC1gDmP6d5kV9vs-20">
          <mxGeometry x="-0.1429" y="-3" relative="1" as="geometry">
            <mxPoint as="offset" />
          </mxGeometry>
        </mxCell>
        <mxCell id="jOmqPRC1gDmP6d5kV9vs-4" value="Fish" style="swimlane;fontStyle=1;align=center;verticalAlign=top;childLayout=stackLayout;horizontal=1;startSize=26;horizontalStack=0;resizeParent=1;resizeParentMax=0;resizeLast=0;collapsible=1;marginBottom=0;" vertex="1" parent="WIyWlLk6GJQsqaUBKTNV-1">
          <mxGeometry x="10" y="60" width="170" height="120" as="geometry" />
        </mxCell>
        <mxCell id="jOmqPRC1gDmP6d5kV9vs-5" value="- color : String" style="text;strokeColor=none;fillColor=none;align=left;verticalAlign=top;spacingLeft=4;spacingRight=4;overflow=hidden;rotatable=0;points=[[0,0.5],[1,0.5]];portConstraint=eastwest;" vertex="1" parent="jOmqPRC1gDmP6d5kV9vs-4">
          <mxGeometry y="26" width="170" height="24" as="geometry" />
        </mxCell>
        <mxCell id="jOmqPRC1gDmP6d5kV9vs-6" value="" style="line;strokeWidth=1;fillColor=none;align=left;verticalAlign=middle;spacingTop=-1;spacingLeft=3;spacingRight=3;rotatable=0;labelPosition=right;points=[];portConstraint=eastwest;" vertex="1" parent="jOmqPRC1gDmP6d5kV9vs-4">
          <mxGeometry y="50" width="170" height="8" as="geometry" />
        </mxCell>
        <mxCell id="jOmqPRC1gDmP6d5kV9vs-7" value="+ Swim() : void&#xa;+ SetColor(warna:String):void&#xa;+ GetColor():String" style="text;strokeColor=none;fillColor=none;align=left;verticalAlign=top;spacingLeft=4;spacingRight=4;overflow=hidden;rotatable=0;points=[[0,0.5],[1,0.5]];portConstraint=eastwest;" vertex="1" parent="jOmqPRC1gDmP6d5kV9vs-4">
          <mxGeometry y="58" width="170" height="62" as="geometry" />
        </mxCell>
        <mxCell id="jOmqPRC1gDmP6d5kV9vs-21" value="Extends" style="endArrow=block;endSize=16;endFill=0;html=1;" edge="1" parent="WIyWlLk6GJQsqaUBKTNV-1" source="jOmqPRC1gDmP6d5kV9vs-4" target="jOmqPRC1gDmP6d5kV9vs-12">
          <mxGeometry width="160" relative="1" as="geometry">
            <mxPoint x="170" y="110" as="sourcePoint" />
            <mxPoint x="330" y="110" as="targetPoint" />
          </mxGeometry>
        </mxCell>
        <mxCell id="jOmqPRC1gDmP6d5kV9vs-12" value="Shark" style="swimlane;fontStyle=1;align=center;verticalAlign=top;childLayout=stackLayout;horizontal=1;startSize=26;horizontalStack=0;resizeParent=1;resizeParentMax=0;resizeLast=0;collapsible=1;marginBottom=0;" vertex="1" parent="WIyWlLk6GJQsqaUBKTNV-1">
          <mxGeometry x="330" y="40" width="260" height="160" as="geometry" />
        </mxCell>
        <mxCell id="jOmqPRC1gDmP6d5kV9vs-13" value="- sharpTeeth : int" style="text;strokeColor=none;fillColor=none;align=left;verticalAlign=top;spacingLeft=4;spacingRight=4;overflow=hidden;rotatable=0;points=[[0,0.5],[1,0.5]];portConstraint=eastwest;" vertex="1" parent="jOmqPRC1gDmP6d5kV9vs-12">
          <mxGeometry y="26" width="260" height="26" as="geometry" />
        </mxCell>
        <mxCell id="jOmqPRC1gDmP6d5kV9vs-14" value="" style="line;strokeWidth=1;fillColor=none;align=left;verticalAlign=middle;spacingTop=-1;spacingLeft=3;spacingRight=3;rotatable=0;labelPosition=right;points=[];portConstraint=eastwest;" vertex="1" parent="jOmqPRC1gDmP6d5kV9vs-12">
          <mxGeometry y="52" width="260" height="8" as="geometry" />
        </mxCell>
        <mxCell id="jOmqPRC1gDmP6d5kV9vs-15" value="+ Eat() : void&#xa;+ SetSharpTeeth(teeth : int):void&#xa;+ Swim() : void&#xa;+ Swim(fin : int):void&#xa;+ Swim(fin : int, dist : double):void&#xa;+ Swim(fin : int, dist : double, tail : String):void" style="text;strokeColor=none;fillColor=none;align=left;verticalAlign=top;spacingLeft=4;spacingRight=4;overflow=hidden;rotatable=0;points=[[0,0.5],[1,0.5]];portConstraint=eastwest;" vertex="1" parent="jOmqPRC1gDmP6d5kV9vs-12">
          <mxGeometry y="60" width="260" height="100" as="geometry" />
        </mxCell>
        <mxCell id="jOmqPRC1gDmP6d5kV9vs-16" value="Aquirium" style="swimlane;fontStyle=1;align=center;verticalAlign=top;childLayout=stackLayout;horizontal=1;startSize=26;horizontalStack=0;resizeParent=1;resizeParentMax=0;resizeLast=0;collapsible=1;marginBottom=0;" vertex="1" parent="WIyWlLk6GJQsqaUBKTNV-1">
          <mxGeometry x="15" y="320" width="160" height="100" as="geometry" />
        </mxCell>
        <mxCell id="jOmqPRC1gDmP6d5kV9vs-17" value="+ length : int&#xa;+ height : int&#xa;+ width : int&#xa;+ fiilFish() : void" style="text;strokeColor=none;fillColor=none;align=left;verticalAlign=top;spacingLeft=4;spacingRight=4;overflow=hidden;rotatable=0;points=[[0,0.5],[1,0.5]];portConstraint=eastwest;" vertex="1" parent="jOmqPRC1gDmP6d5kV9vs-16">
          <mxGeometry y="26" width="160" height="74" as="geometry" />
        </mxCell>
      </root>
    </mxGraphModel>
  </diagram>
</mxfile>
